<svg width="24" height="25" viewBox="0 0 24 25" fill="none" xmlns="http://www.w3.org/2000/svg">
<g id="ant-design:star-filled">
<path id="Vector" d="M21.2836 8.55056L15.3328 7.68571L12.6727 2.29275C12.6 2.14509 12.4805 2.02556 12.3328 1.9529C11.9625 1.77009 11.5125 1.92243 11.3274 2.29275L8.6672 7.68571L2.71642 8.55056C2.55236 8.574 2.40236 8.65134 2.28751 8.76853C2.14867 8.91123 2.07217 9.10322 2.0748 9.3023C2.07744 9.50138 2.15901 9.69127 2.30158 9.83025L6.60704 14.0279L5.58986 19.9552C5.566 20.0931 5.58126 20.2349 5.6339 20.3646C5.68654 20.4942 5.77445 20.6066 5.88767 20.6888C6.00089 20.771 6.13489 20.8199 6.27447 20.8298C6.41404 20.8398 6.55362 20.8104 6.67736 20.7451L12 17.9467L17.3227 20.7451C17.468 20.8224 17.6367 20.8482 17.7985 20.8201C18.2063 20.7498 18.4805 20.3631 18.4102 19.9552L17.393 14.0279L21.6985 9.83025C21.8156 9.7154 21.893 9.5654 21.9164 9.40134C21.9797 8.99118 21.6938 8.6115 21.2836 8.55056Z" fill="#F2C94C"/>
</g>
</svg>
